<svg xmlns="http://www.w3.org/2000/svg" viewBox="0 0 192 192"><defs><style>.a{fill:#1c3068;}.b{fill:#91b33e;fill-rule:evenodd;}</style></defs><path class="a" d="M60.68,38.31,78.44,20.56C100.56-1.56,127-3.58,148.9,5.77A71.25,71.25,0,0,1,186.23,43.1c9.35,21.91,7.33,48.34-14.79,70.46l-17.79,17.8.42-37.91c12-12.94,13.09-27.77,7.89-40A45.7,45.7,0,0,0,138.52,30c-12.19-5.2-27-4.11-40,7.87ZM20.56,78.44,36.24,62.75A22.89,22.89,0,0,0,42.9,77.43l8.05,8L39.28,97.15C26,110.41,24.65,125.87,30,138.52A45.9,45.9,0,0,0,53.48,162c12.64,5.39,28.11,4,41.37-9.24L106.58,141l8.06,8.06a22.93,22.93,0,0,0,6,4.32l0,0a22.92,22.92,0,0,0,7.1,2.16c.51.07,1,.12,1.52.15l-15.72,15.72C91.44,193.56,65,195.58,43.1,186.23A71.25,71.25,0,0,1,5.77,148.9C-3.58,127-1.56,100.56,20.56,78.44Z"/><path class="b" d="M103.84,115.33,79.47,139.71c-15.91,15.91-42.54-11.8-27.17-27.17L76.68,88.17,54.42,65.91a6.64,6.64,0,0,1,4.27-11.33l72.06-.77a6.63,6.63,0,0,1,7.44,7.59l-.81,72.37a6.64,6.64,0,0,1-11.27,3.81Z"/></svg>